<svg height="202" width="202" xmlns="http://www.w3.org/2000/svg"><g fill-rule="evenodd"><path d="m90.421 68.849 37.493 21.531-54.614 80.837c-4.751 8.186-13.629 12.573-21.859 7.847s-9.4-13.611-4.653-21.8z" fill="#2e4154"/><path d="m122.364 99.943c-2.512 3.324-2.915 3.94-5.957 8.054-24.364.171-35.57-20.427-35.57-20.427l4.034-9.159s11.036 23.498 37.493 21.532z" fill="#eadd72"/><path d="m48.6 151.934c11.646 12.46 27.879 16.01 27.879 16.01l-2.626 2.317s-12.5-1.4-25.957-14.906a22.378 22.378 0 0 1 .704-3.421z" fill="#eadd72"/><path d="m139.214 26.746a35.231 35.231 0 0 1 13 48.266 35.626 35.626 0 0 1 -48.525 12.933 35.231 35.231 0 0 1 -13-48.266 35.626 35.626 0 0 1 48.525-12.933z" fill="#192836"/></g></svg>